<?xml version="1.0" encoding="utf-8"?>
<!-- Generator: Adobe Illustrator 23.1.0, SVG Export Plug-In . SVG Version: 6.00 Build 0)  -->
<svg version="1.1" xmlns="http://www.w3.org/2000/svg" xmlns:xlink="http://www.w3.org/1999/xlink" x="0px" y="0px"
	 viewBox="0 0 200 200" style="enable-background:new 0 0 200 200;" xml:space="preserve">
<style type="text/css">
	.st0{fill:#FFFFFF;}
	.st1{fill:#CFE2EF;}
	.st2{fill:#E46C6A;}
	.st3{fill:#334960;}
	.st4{fill:#F7F8F8;}
	.st5{fill:#FFA725;}
	.st6{fill:#C84F00;}
	.st7{fill:#E06D00;}
	.st8{fill:#FF8980;}
	.st9{fill:#EAE5E1;}
	.st10{fill:#FFCC60;}
	.st11{fill:#311F1B;}
	.st12{fill:#473A38;}
	.st13{fill:#FFA29E;}
	.st14{fill:#3E3344;}
	.st15{fill:#F48282;}
	.st16{fill:#EBE6EF;}
	.st17{fill:#3F3344;}
	.st18{fill:#EA7513;}
	.st19{fill:#FBF2E3;}
	.st20{fill:#FDE2C5;}
	.st21{fill:#F26261;}
	.st22{fill:#F4CBA8;}
	.st23{fill:#3A2517;}
	.st24{fill:#493326;}
	.st25{fill:#F495A1;}
	.st26{fill:#EF7D90;}
	.st27{fill:#EF8956;}
	.st28{fill:#E0784B;}
	.st29{fill:#FCD2A7;}
	.st30{fill:#F7C394;}
	.st31{fill:#E0A168;}
	.st32{fill:#FF905F;}
	.st33{fill:#1A1819;}
	.st34{fill:#FAFAFA;}
	.st35{fill:#C6C7CC;}
	.st36{fill:#BBBBC4;}
	.st37{fill:#7E9163;}
	.st38{fill:#D5D7DB;}
	.st39{fill:#383838;}
	.st40{fill:#C86A46;}
	.st41{fill:#BF583C;}
	.st42{fill:#512F2A;}
	.st43{fill:#26180E;}
	.st44{fill:#382416;}
	.st45{fill:#30231A;}
	.st46{fill:#704843;}
	.st47{fill:#515465;}
	.st48{fill:#3F4351;}
	.st49{fill:#00000E;}
	.st50{fill:#34343F;}
	.st51{fill:#211918;}
	.st52{fill:#ECE8E7;}
	.st53{fill:#D8D6D6;}
	.st54{fill:#474646;}
	.st55{fill:#2D2D2D;}
	.st56{fill:#262222;}
	.st57{fill:#29343F;}
	.st58{fill:#F99595;}
	.st59{fill:#EF9C37;}
	.st60{fill:#0C0C05;}
	.st61{fill:#FC8383;}
	.st62{fill:#EACA8F;}
	.st63{fill:#D3AD75;}
	.st64{fill:#FFF4E9;}
	.st65{fill:#333333;}
	.st66{fill:#494949;}
	.st67{fill:#17242D;}
	.st68{fill:#FFCE55;}
	.st69{fill:#171308;}
	.st70{fill:#F2A653;}
	.st71{fill:#D38537;}
	.st72{fill:#341F10;}
	.st73{fill:#FFDBAB;}
	.st74{fill:#642912;}
	.st75{fill:#4C311F;}
	.st76{fill:#F4F4F4;}
	.st77{fill:#C9CBD3;}
	.st78{fill:#252B39;}
	.st79{fill:#303344;}
	.st80{fill:#515668;}
	.st81{fill:#FCE6E6;}
	.st82{fill:#F99393;}
	.st83{fill:#181818;}
	.st84{fill:#656161;}
	.st85{fill:#605C5C;}
	.st86{fill:#ECBF0B;}
	.st87{fill:#111111;}
	.st88{fill:#EFEFEF;}
	.st89{fill:#666262;}
	.st90{fill:#EF8D46;}
	.st91{fill:#E5772C;}
	.st92{fill:#D56428;}
	.st93{fill:#C9511C;}
	.st94{fill:#EDCC9F;}
	.st95{fill:#DBB382;}
	.st96{fill:#DDB17C;}
	.st97{fill:#4B1B11;}
	.st98{fill:#F5F3F4;}
	.st99{fill:#FCC0CD;}
	.st100{fill:#EA8395;}
	.st101{fill:#E28813;}
	.st102{fill:#FFC476;}
	.st103{fill:#F7AF59;}
	.st104{fill:#EBD5D2;}
	.st105{fill:#5E331B;}
	.st106{fill:#220E00;}
	.st107{fill:#443735;}
	.st108{fill:#E5A366;}
	.st109{fill:#A4602F;}
	.st110{fill:#1D160B;}
	.st111{fill:#743016;}
	.st112{fill:#49352A;}
	.st113{fill:#B68253;}
	.st114{fill:#A35F2E;}
	.st115{fill:#6A4733;}
	.st116{fill:#0B0102;}
	.st117{fill:#210D03;}
	.st118{fill:#1D1610;}
	.st119{fill:#D87B1C;}
	.st120{fill:#CD5C03;}
	.st121{fill:#8E3A02;}
	.st122{fill:#FFC355;}
	.st123{fill:#EA9C37;}
	.st124{fill:#B85405;}
	.st125{fill:#A55109;}
	.st126{fill:#FFF3CC;}
	.st127{fill:#FCF8A1;}
	.st128{fill:#E6AC7D;}
	.st129{fill:#FBD1AE;}
	.st130{fill:#D79024;}
	.st131{fill:#A8753B;}
	.st132{fill:#B66813;}
	.st133{fill:#28243C;}
	.st134{fill:#AD734D;}
	.st135{fill:#444156;}
	.st136{fill:none;stroke:#311F1B;stroke-width:4;stroke-linecap:round;stroke-linejoin:round;stroke-miterlimit:10;}
	.st137{fill:#FFEFD8;}
	.st138{fill:#947A69;}
	.st139{fill:#7C6152;}
	.st140{fill:#46260F;}
	.st141{fill:#472710;}
	.st142{fill:#593D2B;}
	.st143{fill:#47240E;}
	.st144{fill:#F05A5B;}
	.st145{fill:#484848;}
	.st146{fill:#8A8E91;}
	.st147{fill:#5D2418;}
	.st148{fill:#353535;}
	.st149{fill:#21241F;}
	.st150{fill:#BEBEBE;}
	.st151{fill:#FCD9D9;}
	.st152{fill:#A4DDF3;}
	.st153{fill:#3A3938;}
	.st154{fill:#C18441;}
	.st155{fill:#A6642D;}
	.st156{fill:#FEFFFA;}
	.st157{fill:#DBD7D6;}
	.st158{fill:#1B1B1B;}
	.st159{fill:#DBD7D4;}
	.st160{fill:#484C51;}
	.st161{fill:#3A3E42;}
	.st162{fill:#93949D;}
	.st163{fill:#CFCD8A;}
	.st164{fill:#271C16;}
	.st165{fill:#FEFDFE;}
	.st166{fill:#FFFEF8;}
	.st167{fill:#D6D6D4;}
	.st168{fill:#C05541;}
	.st169{fill:#A03C2E;}
	.st170{fill:#3F3331;}
	.st171{fill:#ED8F4F;}
	.st172{fill:#D17537;}
	.st173{fill:#D3CFBA;}
	.st174{fill:#FDFAE9;}
	.st175{fill:#423532;}
	.st176{fill:#8E5133;}
	.st177{fill:#F9F0E8;}
	.st178{fill:#E4D7D5;}
	.st179{fill:#683421;}
	.st180{fill:#75512B;}
	.st181{fill:#160500;}
	.st182{fill:#EEC9C9;}
	.st183{fill:#A1959F;}
	.st184{fill:#42404E;}
	.st185{fill:#6F6172;}
	.st186{fill:#413F4D;}
	.st187{fill:#6C6675;}
	.st188{fill:#E27C00;}
	.st189{fill:#151217;}
	.st190{fill:#272528;}
	.st191{fill:#1D1B29;}
	.st192{fill:#BAB9BA;}
	.st193{fill:#373642;}
	.st194{fill:#EA9243;}
	.st195{fill:#CC7833;}
	.st196{fill:#4A3A43;}
	.st197{fill:#6D656A;}
</style>
<g id="图层_1">
</g>
<g id="图层_2">
</g>
<g id="图层_4">
	<g id="狐狸">
		<g>
			<g>
				<g>
					<path class="st90" d="M136.31,169.26c22.21,5.14,45.53-8.81,45.53-8.81s-1.1-1.1-8.08-5.51c11.02-3.12,18.73-6.79,18.73-6.79
						s-2.2-4.59-9.36-10.46c6.98,0.73,10.28-1.29,10.28-1.29s-19.83-28.27-28.27-36.72c1.1-10.28,15.05-41.12,10.28-67.93
						c-2.57-11.38-4.22-15.79-17.81-9.91s-41.31,28.09-49.39,36.9c-8.92-3.21-16.14,0-16.14,0c-8.08-8.81-35.8-31.03-49.39-36.9
						s-15.24-1.47-17.81,9.91c-4.77,26.8,9.18,57.65,10.28,67.93C26.73,108.12,6.9,136.4,6.9,136.4s3.3,2.02,10.28,1.29
						c-7.16,5.87-9.36,10.46-9.36,10.46s7.71,3.67,18.73,6.79c-6.98,4.41-8.08,5.51-8.08,5.51S41.78,174.4,64,169.26
						C64,169.26,96.09,195.02,136.31,169.26z"/>
				</g>
			</g>
			<g>
				<g>
					<path class="st0" d="M181.84,160.45c0,0-1.1-1.1-8.08-5.51c11.02-3.12,18.73-6.79,18.73-6.79s-2.2-4.59-9.36-10.46
						c-12.75-5.32-56.53-6.92-56.53-6.92s-13.95,18.61-26.45,18.61s-19.82-10.52-27.16-18.11c-28.88-2.69-55.81,6.43-55.81,6.43
						c-7.16,5.87-9.36,10.46-9.36,10.46s7.71,3.67,18.73,6.79c-6.98,4.41-8.08,5.51-8.08,5.51S41.78,174.4,64,169.26
						c0,0,32.09,25.76,72.31,0C158.53,174.4,181.84,160.45,181.84,160.45z"/>
				</g>
			</g>
			<g>
				<g>
					<path class="st16" d="M7.82,148.15c0,0,7.71,3.67,18.73,6.79c-6.98,4.41-8.08,5.51-8.08,5.51S41.78,174.4,64,169.26
						c0,0,32.09,25.76,72.31,0c22.21,5.14,45.53-8.81,45.53-8.81s-1.1-1.1-8.08-5.51c11.02-3.12,18.73-6.79,18.73-6.79
						s-2.06-4.27-8.62-9.83l-3.54-0.63l3.06,8.23c0,0-7.09,1.72-12.06,3.06c-4.98,1.34-5.55,7.85-1.53,10.72
						c-9,3.83-18.57,2.21-35.04,2.14c-35.04,18.69-60.13,2.69-70.6-0.63c-11.11,2.17-26.68,0.21-33.57-2.09
						c1.92-1.79,2.3-4.21,2.17-6.38c-0.13-2.17-15.58-7.4-15.58-7.4v-7.66C10.02,143.56,7.82,148.15,7.82,148.15z"/>
				</g>
			</g>
			<g>
				<g>
					<g>
						<path class="st91" d="M17.18,137.68L17.18,137.68c0,0,26.93-9.12,55.81-6.43c7.34,7.59,14.67,18.11,27.16,18.11
							s26.45-18.61,26.45-18.61s43.78,1.6,56.53,6.92v0c6.98,0.73,10.28-1.29,10.28-1.29s-10.67-15.22-19.7-26.66
							c0,0,5.73,17.73,7,21.02c-14.55-6.67-55.91-7.44-55.91-7.44s-10.53,9.77-16.28,14.24c-9.96-5.48-17.81,0-17.81,0
							s-4.98-3.9-16.8-13.67c-17.38-4.21-55.2,6.86-55.2,6.86l5.74-16.58l-1.07-0.32C15.23,124.52,6.9,136.4,6.9,136.4
							S10.21,138.42,17.18,137.68z"/>
					</g>
				</g>
			</g>
			<g>
				<g>
					<path class="st92" d="M156.05,88.11c0,0-10.63-12.6-26.99-23.5c8.63-15.91,26.99-30.66,26.99-30.66s8.45-6.98,9,5.14
						S158.25,81.87,156.05,88.11z"/>
				</g>
			</g>
			<g>
				<g>
					<circle class="st44" cx="73.91" cy="114.18" r="6.79"/>
				</g>
			</g>
			<g>
				<g>
					<ellipse class="st44" cx="100.16" cy="147.67" rx="10.47" ry="7.66"/>
				</g>
			</g>
			<g>
				<g>
					<circle class="st44" cx="125.91" cy="114.18" r="6.79"/>
				</g>
			</g>
			<g>
				<g>
					<path class="st23" d="M100.9,163.02c-1.1,0-2-0.9-2-2v-5.69c0-1.1,0.9-2,2-2s2,0.9,2,2v5.69
						C102.9,162.12,102.01,163.02,100.9,163.02z"/>
				</g>
			</g>
			<g>
				<g>
					<path class="st93" d="M156.05,33.95c0,0-18.36,14.75-26.99,30.66c2.29,1.53,4.47,3.09,6.53,4.65
						c3.6-6.72,12.04-21.36,21.64-30.39c2.75-2.54,5.68-4.89,7.55-2.27C163.22,28.04,156.05,33.95,156.05,33.95z"/>
				</g>
			</g>
			<g>
				<g>
					<path class="st92" d="M44.49,88.11c0,0,10.63-12.6,26.99-23.5C62.85,48.7,44.49,33.95,44.49,33.95s-8.45-6.98-9,5.14
						C34.94,51.21,42.29,81.87,44.49,88.11z"/>
				</g>
			</g>
			<g>
				<g>
					<path class="st93" d="M44.49,33.95c0,0,18.36,14.75,26.99,30.66c-2.29,1.53-4.47,3.09-6.53,4.65
						c-3.6-6.72-12.04-21.36-21.64-30.39c-2.75-2.54-5.68-4.89-7.55-2.27C37.32,28.04,44.49,33.95,44.49,33.95z"/>
				</g>
			</g>
			<g>
				<g>
					<circle class="st0" cx="76.16" cy="115.18" r="2.25"/>
				</g>
			</g>
			<g>
				<g>
					<circle class="st0" cx="123.52" cy="115.18" r="2.25"/>
				</g>
			</g>
		</g>
		<g>
			<path class="st23" d="M195.05,135.25c-0.79-1.13-19.01-27.07-27.8-36.27c0.45-2.76,1.67-6.93,3.06-11.68
				c4.22-14.39,10.59-36.14,7.06-55.99c-1.52-6.75-2.8-11.32-6.55-13.22c-3.09-1.57-7.28-1-14,1.91
				c-13.57,5.87-40.25,27.24-49.17,36.44c-6.79-2.07-12.49-0.82-15-0.03C83.7,47.2,57.05,25.86,43.5,20
				c-6.73-2.91-10.92-3.48-14-1.91c-3.75,1.9-5.03,6.47-6.57,13.31C19.41,51.16,25.78,72.91,30,87.3c1.39,4.75,2.61,8.92,3.06,11.68
				c-8.78,9.19-27.01,35.14-27.8,36.27c-0.32,0.45-0.43,1.02-0.32,1.56c0.11,0.54,0.44,1.01,0.92,1.3c0.28,0.17,2.25,1.3,6.05,1.64
				c-0.16,0.16-0.31,0.32-0.47,0.48c-0.08,0.08-0.17,0.17-0.25,0.25c-0.28,0.29-0.55,0.58-0.8,0.86c-0.07,0.08-0.14,0.16-0.22,0.24
				c-0.18,0.2-0.36,0.4-0.52,0.59c-0.09,0.11-0.18,0.21-0.26,0.31c-0.14,0.16-0.27,0.32-0.4,0.48c-0.08,0.1-0.16,0.2-0.24,0.3
				c-0.14,0.17-0.26,0.33-0.39,0.49c-0.05,0.07-0.11,0.14-0.17,0.21c-0.17,0.22-0.32,0.43-0.47,0.62c-0.06,0.08-0.11,0.15-0.16,0.22
				c-0.09,0.13-0.18,0.25-0.26,0.37c-0.05,0.08-0.1,0.15-0.15,0.22c-0.07,0.11-0.14,0.21-0.21,0.31c-0.04,0.06-0.08,0.13-0.12,0.19
				c-0.08,0.12-0.14,0.23-0.21,0.33c-0.02,0.03-0.04,0.06-0.06,0.09c-0.08,0.13-0.15,0.24-0.21,0.35c-0.02,0.04-0.04,0.08-0.06,0.11
				c-0.03,0.06-0.07,0.12-0.09,0.17c-0.02,0.03-0.03,0.06-0.05,0.09c-0.02,0.05-0.04,0.08-0.06,0.12c-0.01,0.02-0.02,0.03-0.02,0.05
				c-0.02,0.04-0.03,0.07-0.04,0.08c-0.23,0.48-0.26,1.03-0.08,1.53s0.55,0.91,1.03,1.14c0.28,0.13,6.1,2.88,14.86,5.66
				c-3.7,2.44-4.6,3.26-4.76,3.42c-0.44,0.44-0.65,1.05-0.57,1.66c0.08,0.61,0.43,1.15,0.96,1.47c0.82,0.49,17.37,10.25,36.12,10.24
				c3.28,0,6.64-0.3,9.98-1c0.21,0.15,0.46,0.32,0.75,0.52c4.36,2.94,17.57,10.7,35.55,10.7c10.17,0,21.86-2.48,34.34-9.73
				c0.83-0.48,1.67-0.99,2.51-1.51c22.47,4.75,45.21-8.65,46.18-9.23c0.3-0.18,0.54-0.44,0.71-0.74c0.13-0.22,0.22-0.47,0.25-0.73
				c0.08-0.61-0.14-1.22-0.57-1.66c-0.03-0.03-0.1-0.1-0.22-0.19c-0.44-0.38-1.61-1.29-4.55-3.23c8.76-2.77,14.58-5.52,14.85-5.66
				c0.48-0.23,0.85-0.64,1.03-1.14s0.15-1.05-0.08-1.53c-0.01-0.01-0.02-0.04-0.04-0.08c-0.01-0.01-0.01-0.03-0.02-0.05
				c-0.02-0.03-0.04-0.07-0.06-0.12c-0.02-0.03-0.03-0.06-0.05-0.09c-0.03-0.05-0.06-0.11-0.09-0.17c-0.02-0.04-0.04-0.07-0.06-0.11
				c-0.06-0.1-0.13-0.22-0.2-0.34c-0.02-0.03-0.04-0.07-0.06-0.1c-0.06-0.1-0.13-0.21-0.2-0.32c-0.04-0.06-0.08-0.13-0.12-0.19
				c-0.07-0.1-0.13-0.2-0.21-0.31c-0.05-0.08-0.1-0.15-0.16-0.23c-0.08-0.12-0.17-0.24-0.25-0.36c-0.05-0.08-0.11-0.15-0.17-0.23
				c-0.14-0.2-0.3-0.4-0.46-0.62c-0.06-0.07-0.12-0.15-0.18-0.23c-0.12-0.15-0.24-0.31-0.37-0.47c-0.08-0.1-0.17-0.21-0.26-0.31
				c-0.12-0.15-0.25-0.3-0.38-0.46c-0.09-0.11-0.18-0.22-0.28-0.33c-0.16-0.18-0.32-0.36-0.49-0.55c-0.08-0.09-0.16-0.18-0.25-0.28
				c-0.25-0.27-0.51-0.55-0.79-0.84c-0.09-0.1-0.2-0.2-0.29-0.3c-0.14-0.15-0.28-0.29-0.43-0.44c3.8-0.34,5.77-1.47,6.05-1.64
				c0.47-0.29,0.8-0.76,0.92-1.3C195.48,136.26,195.36,135.7,195.05,135.25z M175.94,152.21c-0.88,0.27-1.79,0.54-2.72,0.8
				c-0.76,0.21-1.32,0.86-1.43,1.64c-0.03,0.2-0.03,0.39,0,0.58c0.08,0.57,0.41,1.08,0.91,1.4c1.14,0.72,2.11,1.34,2.95,1.89
				c1.02,0.66,1.83,1.21,2.48,1.65c-0.8,0.4-1.77,0.87-2.87,1.37c-7.55,3.43-21.71,8.5-35.69,6.3c-0.93-0.15-1.87-0.32-2.8-0.54
				c-0.52-0.12-1.08-0.03-1.53,0.26c-16.14,10.34-32.8,13.52-49.51,9.45c-12.52-3.05-20.39-9.26-20.47-9.32
				c-0.36-0.29-0.8-0.44-1.25-0.44c-0.15,0-0.3,0.02-0.45,0.05c-1.58,0.37-3.17,0.63-4.76,0.8c-15.35,1.69-30.57-4.91-36.6-7.94
				c1.18-0.81,2.91-1.95,5.42-3.54c0.67-0.42,1.02-1.2,0.91-1.98s-0.67-1.42-1.43-1.64c-7.44-2.11-13.39-4.49-16.36-5.76
				c0.15-0.22,0.32-0.45,0.51-0.7c0.07-0.09,0.15-0.2,0.23-0.29c0.13-0.17,0.25-0.33,0.4-0.51c0.09-0.12,0.21-0.25,0.31-0.37
				c0.14-0.17,0.28-0.34,0.43-0.52c0.12-0.13,0.25-0.28,0.37-0.42c0.16-0.18,0.32-0.36,0.5-0.55c0.14-0.15,0.29-0.3,0.43-0.45
				c0.19-0.2,0.37-0.39,0.57-0.59c0.16-0.16,0.33-0.33,0.5-0.49c0.21-0.2,0.41-0.41,0.63-0.62c0.18-0.17,0.38-0.35,0.58-0.53
				c0.23-0.21,0.45-0.42,0.7-0.64c0.21-0.19,0.44-0.38,0.66-0.56c0.21-0.18,0.42-0.36,0.64-0.54c3.2-1.02,27.79-8.53,53.89-6.28
				c0.94,0.99,1.88,2.02,2.87,3.1c6.46,7.07,13.77,15.09,25.22,15.09c11.89,0,24.4-14.8,27.39-18.57c6.58,0.28,43,2.02,54.53,6.61
				c0.23,0.19,0.45,0.38,0.67,0.57c0.22,0.19,0.44,0.37,0.65,0.56c0.26,0.23,0.49,0.45,0.74,0.67c0.18,0.17,0.37,0.34,0.54,0.5
				c0.24,0.22,0.45,0.44,0.67,0.66c0.15,0.15,0.32,0.31,0.46,0.46c0.21,0.21,0.4,0.42,0.6,0.63c0.13,0.14,0.28,0.29,0.4,0.42
				c0.18,0.2,0.34,0.38,0.51,0.57c0.12,0.13,0.25,0.28,0.36,0.41c0.15,0.17,0.28,0.33,0.42,0.5c0.11,0.13,0.23,0.27,0.33,0.4
				c0.12,0.15,0.22,0.28,0.33,0.42c0.1,0.13,0.21,0.26,0.3,0.38c0.19,0.25,0.36,0.48,0.51,0.7
				C186.98,148.36,182.1,150.33,175.94,152.21z M183.59,135.71c-13.28-5.3-55.13-6.89-56.92-6.95c-0.64-0.03-1.28,0.28-1.67,0.8
				c-0.13,0.18-13.48,17.81-24.85,17.81c-9.68,0-16.08-7.01-22.27-13.78c-1.13-1.24-2.31-2.52-3.46-3.72
				c-0.33-0.34-0.78-0.56-1.25-0.6c-27.9-2.6-53.56,5.51-56.4,6.44c-3.02,0.3-5.26,0.03-6.72-0.31
				c4.78-6.73,19.65-27.43,26.54-34.31c0.43-0.43,0.64-1.03,0.57-1.63c-0.33-3.06-1.65-7.57-3.33-13.29
				c-4.11-14.03-10.33-35.24-6.99-53.99c1.24-5.47,2.28-9.43,4.46-10.54c1.86-0.95,5.23-0.31,10.6,2.02
				c13.63,5.89,41.03,28.04,48.71,36.42c0.58,0.63,1.5,0.82,2.29,0.48c0.07-0.03,6.57-2.85,14.65,0.05
				c0.76,0.27,1.61,0.07,2.15-0.53c7.68-8.38,35.07-30.52,48.7-36.42c5.37-2.32,8.74-2.96,10.6-2.02c2.18,1.11,3.22,5.07,4.44,10.45
				c3.35,18.83-2.86,40.04-6.98,54.08c-1.67,5.71-3,10.23-3.33,13.29c-0.06,0.6,0.15,1.2,0.57,1.63
				c6.88,6.88,21.75,27.57,26.53,34.31C188.8,135.74,186.59,136,183.59,135.71z"/>
			<g>
				<g>
					<path class="st23" d="M91.91,166.16c-1.15,0-2.28-0.13-3.39-0.4c-6.2-1.48-9.39-6.63-9.52-6.84c-0.57-0.94-0.28-2.17,0.67-2.75
						c0.94-0.58,2.17-0.28,2.74,0.66c0.63,1.01,6.42,9.59,17.66,2.65c0.7-0.44,1.6-0.39,2.26,0.11c8.94,6.8,16.32-2.54,16.63-2.94
						c0.67-0.87,1.93-1.03,2.81-0.36c0.87,0.68,1.03,1.93,0.36,2.81c-3.33,4.31-11.89,10.51-21.11,4.46
						C97.89,165.29,94.84,166.16,91.91,166.16z"/>
				</g>
			</g>
		</g>
	</g>
</g>
</svg>
