<?xml version="1.0" standalone="no"?><!DOCTYPE svg PUBLIC "-//W3C//DTD SVG 1.1//EN" "http://www.w3.org/Graphics/SVG/1.1/DTD/svg11.dtd"><svg t="1663100785683" class="icon" viewBox="0 0 1024 1024" version="1.1" xmlns="http://www.w3.org/2000/svg" p-id="1328" xmlns:xlink="http://www.w3.org/1999/xlink" width="200" height="200"><path d="M463.552 206.752a245.312 245.312 0 1 0 0 490.624 245.312 245.312 0 0 0 0-490.624zM154.24 452.064c0-170.816 138.464-309.312 309.312-309.312 170.816 0 309.312 138.496 309.312 309.312a309.312 309.312 0 0 1-309.312 309.312c-170.848 0-309.312-138.496-309.312-309.312z" fill="#404040" p-id="1329"></path><path d="M431.552 257.952a32 32 0 0 1 32-32c63.264 0 120.512 26.016 161.504 67.84a32 32 0 1 1-45.728 44.8c-29.44-30.048-70.4-48.64-115.776-48.64a32 32 0 0 1-32-32z" fill="#F2B71E" p-id="1330"></path><path d="M710.304 698.816a32 32 0 0 1 45.248 0l118.848 118.848a32 32 0 0 1-45.248 45.28l-118.848-118.848a32 32 0 0 1 0-45.28z" fill="#404040" p-id="1331"></path></svg>