<?xml version="1.0" standalone="no"?><!DOCTYPE svg PUBLIC "-//W3C//DTD SVG 1.1//EN" "http://www.w3.org/Graphics/SVG/1.1/DTD/svg11.dtd"><svg t="1663100744761" class="icon" viewBox="0 0 1024 1024" version="1.1" xmlns="http://www.w3.org/2000/svg" p-id="1179" xmlns:xlink="http://www.w3.org/1999/xlink" width="200" height="200"><path d="M318.624 318.624a296.096 296.096 0 0 0 418.752 418.752 296.224 296.224 0 0 0 61.376-329.472 32 32 0 1 1 58.496-25.92c58.56 132.064 33.76 292.256-74.624 400.64-140.64 140.64-368.64 140.64-509.248 0-140.64-140.64-140.64-368.64 0-509.248 108.384-108.384 268.576-133.184 400.64-74.624a32 32 0 1 1-25.92 58.496A296.224 296.224 0 0 0 318.624 318.624z m395.456-62.816a32 32 0 0 1 45.088-3.936 363.264 363.264 0 0 1 45.44 45.536 32 32 0 1 1-49.12 41.024 300.928 300.928 0 0 0-37.44-37.536 32 32 0 0 1-3.968-45.088z" fill="#404040" p-id="1180"></path><path d="M705.28 350.72a32 32 0 0 1 6.816 35.2l-92.8 216.544-58.848-25.216 61.28-142.976-142.976 61.28-25.216-58.816 216.512-92.8a32 32 0 0 1 35.264 6.784z" fill="#404040" p-id="1181"></path><path d="M350.72 705.28a32 32 0 0 1-6.784-35.2l92.8-216.544a32 32 0 0 1 52.032-10.016l61.856 61.856a32 32 0 1 1-45.248 45.248l-28.448-28.448-42.656 99.552 142.976-61.28a32 32 0 1 1 25.216 58.816l-216.512 92.8a32 32 0 0 1-35.232-6.784z" fill="#F2B71E" p-id="1182"></path></svg>