<?xml version="1.0" standalone="no"?><!DOCTYPE svg PUBLIC "-//W3C//DTD SVG 1.1//EN" "http://www.w3.org/Graphics/SVG/1.1/DTD/svg11.dtd"><svg t="1663957772708" class="icon" viewBox="0 0 1024 1024" version="1.1" xmlns="http://www.w3.org/2000/svg" p-id="1164" xmlns:xlink="http://www.w3.org/1999/xlink" width="200" height="200"><path d="M466.432 189.792a64 64 0 0 1 106.688 0l68.384 103.104a32 32 0 1 1-53.312 35.392l-68.416-103.104-98.624 148.64a64 64 0 0 1-36.16 26.272L213.12 448l110.88 139.744a64 64 0 0 1 13.792 42.496l-7.552 178.24 167.168-62.272a64 64 0 0 1 44.672 0l167.2 62.272-7.616-178.24a64 64 0 0 1 13.824-42.496L826.432 448l-114.688-31.936a32 32 0 1 1 17.184-61.632l114.656 31.936a64 64 0 0 1 32.96 101.44l-110.88 139.712 7.584 178.24a64 64 0 0 1-86.304 62.72l-167.168-62.304-167.168 62.304a64 64 0 0 1-86.304-62.72l7.584-178.24-110.88-139.744a64 64 0 0 1 32.96-101.44l171.84-47.84 98.624-148.672z" fill="#404040" p-id="1165"></path><path d="M483.84 626.464a24 24 0 0 0-39.808 26.848L464 640a2426.56 2426.56 0 0 0-19.968 13.344l0.064 0.064 0.064 0.064 0.128 0.224 0.416 0.576a69.248 69.248 0 0 0 5.376 6.656c3.52 4 8.672 9.12 15.52 14.272 13.76 10.336 34.688 20.8 62.4 20.8 27.712 0 48.64-10.464 62.4-20.8a105.888 105.888 0 0 0 19.68-19.296c0.512-0.64 0.928-1.184 1.216-1.632l0.416-0.576 0.16-0.224 0.032-0.064 0.032-0.064s0.032-0.032-19.936-13.344l19.968 13.312a24 24 0 1 0-40.064-26.496 57.984 57.984 0 0 1-10.304 9.984c-7.552 5.664-18.624 11.2-33.6 11.2-14.976 0-26.016-5.536-33.6-11.2a58.112 58.112 0 0 1-10.304-9.984l-0.256-0.32z" fill="#F2B71E" p-id="1166"></path></svg>